<svg xmlns="http://www.w3.org/2000/svg" viewBox="0 0 120 120" role="img" aria-label="Mosaic"><style>@import url('https://fonts.googleapis.com/css2?family=Bricolage+Grotesque:opsz,wght@12..96,400..800&amp;display=swap');</style><rect width="120" height="120" rx="20" fill="#04303f"/><rect x="3.4" y="3.4" width="21.2" height="21.2" rx="3.2" fill="#0c5f75"/><rect x="27.0" y="3.4" width="21.2" height="21.2" rx="3.2" fill="#f7fcfc"/><rect x="50.6" y="3.4" width="21.2" height="21.2" rx="3.2" fill="#f7fcfc"/><rect x="74.2" y="3.4" width="21.2" height="21.2" rx="3.2" fill="#f7fcfc"/><rect x="97.8" y="3.4" width="21.2" height="21.2" rx="3.2" fill="#f7fcfc"/><rect x="3.4" y="27.0" width="21.2" height="21.2" rx="3.2" fill="#0a6d86"/><rect x="27.0" y="27.0" width="21.2" height="21.2" rx="3.2" fill="#16a9c2"/><rect x="50.6" y="27.0" width="21.2" height="21.2" rx="3.2" fill="#1394ad"/><rect x="74.2" y="27.0" width="21.2" height="21.2" rx="3.2" fill="#f7fcfc"/><rect x="97.8" y="27.0" width="21.2" height="21.2" rx="3.2" fill="#0b7f98"/><rect x="3.4" y="50.6" width="21.2" height="21.2" rx="3.2" fill="#0a6d86"/><rect x="27.0" y="50.6" width="21.2" height="21.2" rx="3.2" fill="#0a6d86"/><rect x="50.6" y="50.6" width="21.2" height="21.2" rx="3.2" fill="#1394ad"/><rect x="74.2" y="50.6" width="21.2" height="21.2" rx="3.2" fill="#f7fcfc"/><rect x="97.8" y="50.6" width="21.2" height="21.2" rx="3.2" fill="#1394ad"/><rect x="3.4" y="74.2" width="21.2" height="21.2" rx="3.2" fill="#f7fcfc"/><rect x="27.0" y="74.2" width="21.2" height="21.2" rx="3.2" fill="#0b7f98"/><rect x="50.6" y="74.2" width="21.2" height="21.2" rx="3.2" fill="#0c5f75"/><rect x="74.2" y="74.2" width="21.2" height="21.2" rx="3.2" fill="#f7fcfc"/><rect x="97.8" y="74.2" width="21.2" height="21.2" rx="3.2" fill="#0a6d86"/><rect x="3.4" y="97.8" width="21.2" height="21.2" rx="3.2" fill="#0c5f75"/><rect x="27.0" y="97.8" width="21.2" height="21.2" rx="3.2" fill="#f7fcfc"/><rect x="50.6" y="97.8" width="21.2" height="21.2" rx="3.2" fill="#f7fcfc"/><rect x="74.2" y="97.8" width="21.2" height="21.2" rx="3.2" fill="#1394ad"/><rect x="97.8" y="97.8" width="21.2" height="21.2" rx="3.2" fill="#0c5f75"/></svg>